<?xml version="1.0" standalone="no"?>
<!DOCTYPE svg PUBLIC "-//W3C//DTD SVG 20010904//EN"
 "http://www.w3.org/TR/2001/REC-SVG-20010904/DTD/svg10.dtd">
<svg version="1.0" xmlns="http://www.w3.org/2000/svg"
 width="700.000000pt" height="170.000000pt" viewBox="0 0 700.000000 170.000000"
 preserveAspectRatio="xMidYMid meet">

<g transform="translate(0.000000,170.000000) scale(0.100000,-0.100000)"
fill="#000000" stroke="none">
<path d="M5564 1465 l129 -124 56 49 c31 27 92 83 136 124 l80 75 -265 0 -265
0 129 -124z"/>
<path d="M4400 1460 c0 -6 7 -13 15 -16 46 -18 -7 -24 -205 -24 l-220 0 0
-535 0 -535 160 0 160 0 0 170 0 171 57 -3 56 -3 53 -120 c29 -66 53 -126 53
-132 1 -7 -31 -47 -70 -88 l-72 -75 279 0 279 0 274 301 274 301 -35 36 c-19
20 -144 155 -277 300 l-243 262 -269 0 c-178 0 -269 -3 -269 -10z m75 -60 c10
-11 16 -20 13 -20 -3 0 -13 9 -23 20 -10 11 -16 20 -13 20 3 0 13 -9 23 -20z
m125 -137 c0 -8 -9 0 -50 45 l-45 47 48 -45 c26 -24 47 -45 47 -47z m110 -120
c0 -8 -9 0 -50 45 l-45 47 48 -45 c26 -24 47 -45 47 -47z m-123 -39 c21 -21
24 -32 19 -62 -10 -63 -31 -72 -172 -72 l-124 0 0 80 0 80 125 0 c122 0 127
-1 152 -26z m233 -81 c0 -8 -9 0 -50 45 l-45 47 48 -45 c26 -24 47 -45 47 -47z
m60 -68 c19 -19 32 -35 29 -35 -3 0 -20 16 -39 35 -19 19 -32 35 -29 35 3 0
20 -16 39 -35z m54 -71 c4 -10 -21 -45 -76 -105 -45 -49 -85 -89 -89 -89 -4 0
-9 8 -12 19 -3 13 9 28 42 52 25 19 61 57 81 86 38 57 45 61 54 37z m-164
-217 c0 -2 -17 -19 -37 -38 l-38 -34 34 38 c33 34 41 42 41 34z m-90 -100 c0
-2 -19 -21 -42 -42 l-43 -40 40 43 c36 39 45 47 45 39z"/>
<path d="M6194 1188 c-142 -156 -266 -293 -277 -305 l-19 -22 273 -295 274
-296 274 0 273 0 -99 108 c-54 59 -177 192 -272 295 l-174 188 25 27 c90 100
277 304 358 392 121 131 160 176 160 184 0 3 -121 6 -269 6 l-269 0 -258 -282z"/>
<path d="M1432 1426 c-188 -36 -361 -170 -426 -330 l-23 -55 -10 69 c-21 131
-89 231 -191 282 -46 23 -54 23 -404 26 l-358 3 0 -536 0 -535 165 0 165 0 0
170 0 171 57 -3 57 -3 75 -167 74 -168 182 0 181 0 -96 191 c-73 148 -92 193
-80 197 30 11 110 96 133 142 l24 48 6 -76 c14 -193 132 -365 310 -451 89 -44
168 -61 275 -61 113 0 193 19 286 68 267 140 372 457 240 718 -110 218 -388
347 -642 300z m227 -301 c92 -46 141 -129 141 -240 0 -112 -54 -201 -147 -246
-132 -64 -300 9 -348 150 -18 52 -19 142 -2 188 55 147 221 217 356 148z
m-1034 -20 c30 -30 32 -64 4 -99 -20 -26 -22 -26 -150 -26 l-129 0 0 75 0 75
125 0 c120 0 127 -1 150 -25z"/>
<path d="M2083 1228 c39 -106 128 -346 197 -533 l125 -340 201 -3 201 -2 148
407 c82 225 152 412 157 417 4 6 8 -178 8 -407 l0 -417 405 0 405 0 0 145 0
145 -246 0 -245 0 3 53 3 52 238 3 237 2 0 140 0 140 -237 2 -238 3 -3 48 -3
47 245 0 246 0 0 145 0 145 -547 -2 -547 -3 -108 -335 c-59 -184 -107 -343
-107 -352 -1 -10 -5 -18 -9 -18 -6 0 -125 359 -215 648 l-19 62 -183 0 -183 0
71 -192z"/>
<path d="M5570 274 c-69 -64 -126 -119 -128 -123 -1 -4 116 -8 260 -9 l263 -2
-130 125 c-71 69 -132 125 -135 125 -3 -1 -61 -53 -130 -116z"/>
</g>
</svg>
